HIERARCHY
ROOT Hips
{
	OFFSET 0.000000 0.000000 0.000000
	CHANNELS 6 Xposition Yposition Zposition Xrotation Yrotation Zrotation
	JOINT LeftUpLeg_virtual
	{
		OFFSET 0.000000 0.000000 0.000000
		CHANNELS 3 Xrotation Yrotation Zrotation
		JOINT LeftUpLeg
		{
			OFFSET 10.205400 -3.823500 0.155100
			CHANNELS 3 Xrotation Yrotation Zrotation
			JOINT LeftLeg
			{
				OFFSET 0.708757 -12.982077 0.567790
				CHANNELS 3 Xrotation Yrotation Zrotation
				JOINT LeftFoot
				{
					OFFSET -0.708756 -10.717838 -2.184338
					CHANNELS 3 Xrotation Yrotation Zrotation
					JOINT LeftToeBase
					{
						OFFSET 0.108149 -7.191104 7.560241
						CHANNELS 3 Xrotation Yrotation Zrotation
						JOINT LeftToe_End
						{
							OFFSET 0.070230 0.081724 4.490308
							CHANNELS 3 Xrotation Yrotation Zrotation
							End Site
							{
								OFFSET 0 0 0
							}
						}
					}
				}
			}
		}
	}
	JOINT RightUpLeg_virtual
	{
		OFFSET 0.000000 0.000000 0.000000
		CHANNELS 3 Xrotation Yrotation Zrotation
		JOINT RightUpLeg
		{
			OFFSET -10.205400 -3.823500 0.005500
			CHANNELS 3 Xrotation Yrotation Zrotation
			JOINT RightLeg
			{
				OFFSET -0.708756 -12.982134 0.610632
				CHANNELS 3 Xrotation Yrotation Zrotation
				JOINT RightFoot
				{
					OFFSET 0.708754 -10.717769 -1.945823
					CHANNELS 3 Xrotation Yrotation Zrotation
					JOINT RightToeBase
					{
						OFFSET -0.108140 -7.191069 7.372968
						CHANNELS 3 Xrotation Yrotation Zrotation
						JOINT RightToe_End
						{
							OFFSET -0.070227 0.081735 4.479403
							CHANNELS 3 Xrotation Yrotation Zrotation
							End Site
							{
								OFFSET 0 0 0
							}
						}
					}
				}
			}
		}
	}
	JOINT Spine_virtual
	{
		OFFSET 0.000000 0.000000 0.000000
		CHANNELS 3 Xrotation Yrotation Zrotation
		JOINT Spine
		{
			OFFSET 0.000000 6.876099 0.125700
			CHANNELS 3 Xrotation Yrotation Zrotation
			JOINT Spine1
			{
				OFFSET 0.000000 5.730043 0.104720
				CHANNELS 3 Xrotation Yrotation Zrotation
				JOINT Spine1_split
				{
					OFFSET 0.000000 5.730043 0.104720
					CHANNELS 3 Xrotation Yrotation Zrotation
					JOINT Spine2
					{
						OFFSET 0.000000 5.730043 0.104720
						CHANNELS 3 Xrotation Yrotation Zrotation
						JOINT Neck_virtual
						{
							OFFSET 0.000000 0.000000 0.000000
							CHANNELS 3 Xrotation Yrotation Zrotation
							JOINT Neck
							{
								OFFSET 0.000000 10.314075 0.188496
								CHANNELS 3 Xrotation Yrotation Zrotation
								JOINT Head
								{
									OFFSET 0.000000 7.643700 -2.377400
									CHANNELS 3 Xrotation Yrotation Zrotation
									JOINT HeadTop_End
									{
										OFFSET 0.000000 43.788605 -13.619600
										CHANNELS 3 Xrotation Yrotation Zrotation
										End Site
										{
											OFFSET 0 0 0
										}
									}
								}
							}
						}
						JOINT LeftShoulder_virtual
						{
							OFFSET 0.000000 0.000000 0.000000
							CHANNELS 3 Xrotation Yrotation Zrotation
							JOINT LeftShoulder
							{
								OFFSET 2.196100 4.412489 0.087492
								CHANNELS 3 Xrotation Yrotation Zrotation
								JOINT LeftShoulder_split
								{
									OFFSET 2.196100 4.412489 0.087492
									CHANNELS 3 Xrotation Yrotation Zrotation
									JOINT LeftArm
									{
										OFFSET 8.771219 -2.981674 -0.026999
										CHANNELS 3 Xrotation Yrotation Zrotation
										JOINT LeftForeArm
										{
											OFFSET 8.512804 0.000000 -0.000000
											CHANNELS 3 Xrotation Yrotation Zrotation
											JOINT LeftHand
											{
												OFFSET 18.484802 0.000000 -0.000000
												CHANNELS 3 Xrotation Yrotation Zrotation
												End Site
												{
													OFFSET 0 0 0
												}
											}
										}
									}
								}
							}
						}
						JOINT RightShoulder_virtual
						{
							OFFSET 0.000000 0.000000 0.000000
							CHANNELS 3 Xrotation Yrotation Zrotation
							JOINT RightShoulder
							{
								OFFSET -2.196100 4.412496 0.070690
								CHANNELS 3 Xrotation Yrotation Zrotation
								JOINT RightShoulder_split
								{
									OFFSET -2.196100 4.412496 0.070690
									CHANNELS 3 Xrotation Yrotation Zrotation
									JOINT RightArm
									{
										OFFSET -8.771282 -2.981682 -0.094208
										CHANNELS 3 Xrotation Yrotation Zrotation
										JOINT RightForeArm
										{
											OFFSET -8.494598 0.000000 0.000000
											CHANNELS 3 Xrotation Yrotation Zrotation
											JOINT RightHand
											{
												OFFSET -18.483803 0.000000 0.000001
												CHANNELS 3 Xrotation Yrotation Zrotation
												End Site
												{
													OFFSET 0 0 0
												}
											}
										}
									}
								}
							}
						}
					}
				}
			}
		}
	}
}
MOTION
Frames: 8
Frame Time: 0.03333333
5.567582 34.650009 -7.110840 0.000000 0.000000 0.000000 -1.074792 -11.796205 0.532379 -3.833915 16.432750 -3.825059 15.630763 3.295792 3.596258 -9.675232 19.362454 -5.276184 1.205152 -2.293943 1.810448 0.000000 0.000000 0.000000 -0.257029 -9.693701 0.424324 -5.917565 -6.390993 -6.712180 7.231260 11.505818 1.433340 -16.869353 -11.981602 12.678276 8.499968 5.920449 -14.321933 0.000000 0.000000 0.000000 -3.626510 -4.784836 -0.378257 3.983737 1.615300 -0.440660 -0.755851 -3.187896 -0.454320 0.164744 -0.252817 -0.005255 0.000000 0.000000 0.000000 -0.351098 -0.125944 -1.059875 3.229874 14.034801 9.627497 -8.222752 -10.927051 -31.246404 0.000000 0.000000 0.000000 -1.218999 -2.329054 -0.982136 1.835542 -6.637146 -12.211325 1.876227 -2.179716 -3.838445 -8.649267 -6.781567 -59.193705 2.871134 -17.476887 -2.049266 0.000000 0.000000 0.000000 -1.078035 -1.829580 -0.776950 2.810805 -2.590636 17.532467 -3.023338 0.895101 0.322870 6.966673 -0.496114 65.173740 -1.493551 14.569115 3.974571 0.000000 0.000000 0.000000 
5.788759 34.662903 -7.033092 0.000000 0.000000 0.000000 -1.020598 -12.896060 0.401907 -3.663671 16.495021 -4.317893 15.574418 3.363068 3.813840 -9.732997 19.744163 -4.899888 0.989193 -2.170632 1.834764 0.000000 0.000000 0.000000 -0.217125 -10.676040 0.286893 -6.065614 -6.078176 -6.612584 7.010333 11.942284 1.451897 -17.073178 -11.963638 12.167763 8.542096 5.819793 -14.122259 0.000000 0.000000 0.000000 -3.631862 -5.610811 -0.553013 3.874339 1.444393 -0.499856 -0.734601 -3.430883 -0.461844 0.171886 -0.248454 -0.013379 0.000000 0.000000 0.000000 -0.344324 -0.371587 -1.066586 3.213492 14.678684 9.762762 -8.642952 -10.214741 -32.140866 0.000000 0.000000 0.000000 -1.197731 -2.581007 -1.008927 1.851043 -7.048649 -12.543256 1.797075 -2.102604 -3.678870 -9.308318 -8.065834 -59.739894 3.107505 -17.850343 -1.968145 0.000000 0.000000 0.000000 -1.087097 -2.059389 -0.784384 2.751004 -2.508478 17.802880 -2.888170 0.851715 0.189037 6.434790 -0.587274 65.902979 -1.033812 14.769775 3.632768 0.000000 0.000000 0.000000 
5.989042 34.676247 -6.957756 0.000000 0.000000 0.000000 -0.932169 -13.937549 0.268526 -3.573340 16.577025 -4.745169 15.521006 3.416060 4.042740 -9.744826 20.096180 -4.542548 0.794534 -2.055416 1.857073 0.000000 0.000000 0.000000 -0.136919 -11.623642 0.147952 -6.178616 -5.820443 -6.479217 6.706811 12.251090 1.484710 -17.234755 -11.973052 11.577579 8.600828 5.702752 -13.862502 0.000000 0.000000 0.000000 -3.593762 -6.395767 -0.730200 3.794358 1.253969 -0.633231 -0.688362 -3.668655 -0.458141 0.183578 -0.232991 -0.020734 0.000000 0.000000 0.000000 -0.300312 -0.612289 -1.063705 3.141757 15.299465 9.902060 -9.183001 -9.611124 -32.845902 0.000000 0.000000 0.000000 -1.134997 -2.825836 -1.020941 1.856747 -7.498695 -12.815443 1.725475 -2.019492 -3.576468 -9.861716 -9.609450 -60.264282 3.369993 -18.473520 -1.832244 0.000000 0.000000 0.000000 -1.046514 -2.283251 -0.779751 2.669878 -2.446628 18.132767 -2.783735 0.796594 0.011695 5.811916 -0.648927 66.598846 -0.461028 14.901169 3.282053 0.000000 0.000000 0.000000 
6.165556 34.691269 -6.887453 0.000000 0.000000 0.000000 -0.784251 -14.878794 0.144947 -3.578562 16.689265 -5.102227 15.445421 3.440786 4.275341 -9.725130 20.387691 -4.202574 0.667538 -1.951225 1.899598 0.000000 0.000000 0.000000 -0.004479 -12.518398 0.019019 -6.278740 -5.593265 -6.357592 6.325027 12.460231 1.534895 -17.208759 -11.996910 11.062141 8.543275 5.604935 -13.553935 0.000000 0.000000 0.000000 -3.488695 -7.123290 -0.895732 3.723286 1.035334 -0.854246 -0.621095 -3.900682 -0.445438 0.189633 -0.214033 -0.021547 0.000000 0.000000 0.000000 -0.226160 -0.845513 -1.054575 3.024049 15.888842 10.060280 -9.773282 -9.116138 -33.357602 0.000000 0.000000 0.000000 -1.035129 -3.062278 -1.018018 1.853485 -7.965790 -13.009075 1.656242 -1.933190 -3.519461 -10.308889 -11.365606 -60.768849 3.659364 -19.374477 -1.644628 0.000000 0.000000 0.000000 -0.961808 -2.499741 -0.769323 2.567988 -2.429177 18.511165 -2.702960 0.710769 -0.210778 5.128445 -0.700326 67.239907 0.218633 14.991350 2.920108 0.000000 0.000000 0.000000 
6.319397 34.708897 -6.823566 0.000000 0.000000 0.000000 -0.572397 -15.676973 0.034417 -3.714676 16.828731 -5.368497 15.349117 3.407630 4.499475 -9.647445 20.580333 -3.922254 0.578354 -1.858535 1.994042 0.000000 0.000000 0.000000 0.199497 -13.327265 -0.093232 -6.368531 -5.370145 -6.267907 5.845564 12.612370 1.606637 -16.985198 -12.017183 10.735187 8.368588 5.543601 -13.208263 0.000000 0.000000 0.000000 -3.299340 -7.773498 -1.050116 3.641616 0.784202 -1.167784 -0.537902 -4.128908 -0.427531 0.195433 -0.192893 -0.016547 0.000000 0.000000 0.000000 -0.126745 -1.070675 -1.041499 2.855503 16.432228 10.258507 -10.325972 -8.709623 -33.685410 0.000000 0.000000 0.000000 -0.902824 -3.290777 -1.002960 1.840213 -8.440736 -13.118814 1.604460 -1.838424 -3.513628 -10.658777 -13.263835 -61.259598 3.963905 -20.473012 -1.424746 0.000000 0.000000 0.000000 -0.838972 -2.711904 -0.758535 2.448051 -2.463008 18.918019 -2.632450 0.593898 -0.463369 4.431393 -0.773260 67.820930 0.987542 15.113467 2.549287 0.000000 0.000000 0.000000 
6.452353 34.727730 -6.765558 0.000000 0.000000 0.000000 -0.289894 -16.335695 -0.067056 -3.978618 16.971644 -5.540362 15.250173 3.320982 4.708183 -9.497418 20.672252 -3.693278 0.475208 -1.780984 2.160990 0.000000 0.000000 0.000000 0.474544 -14.003484 -0.196230 -6.418723 -5.145531 -6.196353 5.259061 12.714591 1.695348 -16.696695 -12.032562 10.558512 8.153439 5.523633 -12.833923 0.000000 0.000000 0.000000 -3.020618 -8.340020 -1.191537 3.538641 0.507061 -1.566107 -0.445076 -4.353835 -0.407965 0.199333 -0.174917 -0.009620 0.000000 0.000000 0.000000 -0.005042 -1.286480 -1.026903 2.638764 16.929739 10.514083 -10.776800 -8.356243 -33.833154 0.000000 0.000000 0.000000 -0.739946 -3.513324 -0.979843 1.816425 -8.920369 -13.153946 1.563042 -1.720674 -3.525136 -10.898508 -15.228173 -61.733777 4.258603 -21.645098 -1.192613 0.000000 0.000000 0.000000 -0.679029 -2.920186 -0.750998 2.316069 -2.541705 19.327217 -2.572432 0.471350 -0.713692 3.774667 -0.882737 68.340489 1.818064 15.343658 2.176468 0.000000 0.000000 0.000000 
6.566552 34.747723 -6.718977 0.000000 0.000000 0.000000 0.058512 -16.871614 -0.166787 -4.370720 17.095267 -5.621711 15.196042 3.218587 4.895536 -9.299519 20.694385 -3.471371 0.377122 -1.712630 2.344751 0.000000 0.000000 0.000000 0.813856 -14.539386 -0.297417 -6.391094 -4.952034 -6.106078 4.634980 12.722680 1.787150 -16.508659 -12.073460 10.377015 8.014669 5.537476 -12.425647 0.000000 0.000000 0.000000 -2.674418 -8.829897 -1.325780 3.419410 0.224642 -2.035457 -0.342896 -4.570404 -0.388549 0.198836 -0.173241 -0.005201 0.000000 0.000000 0.000000 0.138985 -1.492222 -1.011204 2.370076 17.366581 10.838791 -11.106037 -8.025053 -33.801179 0.000000 0.000000 0.000000 -0.554197 -3.728065 -0.951381 1.780418 -9.400875 -13.122572 1.521290 -1.628161 -3.554819 -11.023305 -17.128769 -62.167856 4.510453 -22.779895 -0.966168 0.000000 0.000000 0.000000 -0.491025 -3.123895 -0.746108 2.176446 -2.636763 19.711130 -2.505904 0.367678 -0.934891 3.203055 -1.027345 68.797716 2.672138 15.709027 1.811649 0.000000 0.000000 0.000000 
6.664406 34.766907 -6.678493 0.000000 0.000000 0.000000 0.454592 -17.314863 -0.274347 -4.853230 17.204401 -5.626317 15.191456 3.143957 5.067711 -9.116711 20.680679 -3.204327 0.285550 -1.646850 2.505069 0.000000 0.000000 0.000000 1.185190 -14.952922 -0.408633 -6.285645 -4.823772 -5.974225 4.026027 12.614322 1.882371 -16.493751 -12.151145 10.121257 7.977430 5.582761 -11.993355 0.000000 0.000000 0.000000 -2.286008 -9.240787 -1.459606 3.307092 -0.037496 -2.551773 -0.231415 -4.771011 -0.370031 0.197376 -0.170889 -0.007055 0.000000 0.000000 0.000000 0.303619 -1.685974 -0.994416 2.051829 17.736997 11.233605 -11.326887 -7.671085 -33.583221 0.000000 0.000000 0.000000 -0.346311 -3.931774 -0.920853 1.734566 -9.877709 -13.046694 1.474681 -1.537687 -3.595046 -11.061674 -18.858687 -62.541337 4.697310 -23.827211 -0.758175 0.000000 0.000000 0.000000 -0.276502 -3.317298 -0.742264 2.032164 -2.712761 20.042635 -2.412966 0.283313 -1.098917 2.765464 -1.198669 69.186709 3.510977 16.172851 1.466005 0.000000 0.000000 0.000000 
